# xmcd
#
# Track frame offsets:
#	150
#	13155
#	28564
#	41440
#	50241
#	66141
#	76865
#	89982
#	103633
#	115213
#	126630
#	139359
#	152988
#	169486
#	180992
#	194156
#	206487
#	214904
#	229367
#	239258
#
# Disc length: 3378 seconds
# Revision: 1
# Processed by: cddbd v1.5.2PL0 Copyright (c) Steve Scherf et al.
# Submitted via: dBpowerAMP V12.0
#
DISCID=350d3014
DTITLE=Johnny Green - The Best of Johnny Green
DYEAR=2001
DGENRE=Country
TTITLE0=The Goondiwindi Grey
TTITLE1=Lucille
TTITLE2=My Dad Was a Road Train Man
TTITLE3=Kiss An Angel Good Morning
TTITLE4=Devil Woman
TTITLE5=You Can Only Do The Best You Can
TTITLE6=If you Love Me Let Me Know
TTITLE7=The Helping Hand of Billy Maher
TTITLE8=My Little Two Acre Farm
TTITLE9=I Overlooked an Orchid
TTITLE10=The Singing Transport Man
TTITLE11=Lights on The Hill
TTITLE12=Tibrogargan
TTITLE13=Mary My Wildflower Sweetheart
TTITLE14=Crystal Chandelier
TTITLE15=Distant Drums
TTITLE16=Along The Road to Gundagai
TTITLE17=The Blue Velvet Band
TTITLE18=Grandma's Feather Bed
TTITLE19=There's a Lonely Star in Heaven
EXTD=
EXTT0=
EXTT1=
EXTT2=
EXTT3=
EXTT4=
EXTT5=
EXTT6=
EXTT7=
EXTT8=
EXTT9=
EXTT10=
EXTT11=
EXTT12=
EXTT13=
EXTT14=
EXTT15=
EXTT16=
EXTT17=
EXTT18=
EXTT19=
PLAYORDER=
